<svg xmlns="http://www.w3.org/2000/svg" xmlns:xlink="http://www.w3.org/1999/xlink" width="528" zoomAndPan="magnify" viewBox="0 0 396 305.999988" height="408" preserveAspectRatio="xMidYMid meet" version="1.0"><defs><g/><clipPath id="3b9aa28844"><path d="M 136.738281 73.09375 L 261.238281 73.09375 L 261.238281 202.84375 L 136.738281 202.84375 Z M 136.738281 73.09375 " clip-rule="nonzero"/></clipPath></defs><rect x="-39.6" width="475.2" fill="#ffffff" y="-30.599999" height="367.199986" fill-opacity="1"/><rect x="-39.6" width="475.2" fill="#ffffff" y="-30.599999" height="367.199986" fill-opacity="1"/><rect x="-39.6" width="475.2" fill="#000000" y="-30.599999" height="367.199986" fill-opacity="1"/><path fill="#ffffff" d="M 201.625 195.117188 L 253.273438 195.117188 L 253.273438 80.824219 L 144.722656 80.824219 L 144.722656 195.117188 Z M 201.625 86.066406 L 248.019531 86.066406 L 248.019531 189.875 L 201.625 189.875 Z M 196.371094 86.066406 L 196.371094 115.164062 L 149.976562 115.164062 L 149.976562 86.066406 Z M 149.976562 189.875 L 149.976562 120.410156 L 196.371094 120.410156 L 196.371094 189.875 Z M 149.976562 189.875 " fill-opacity="1" fill-rule="nonzero"/><path fill="#ffffff" d="M 231.761719 88.164062 C 228.578125 90.753906 225.621094 93.574219 222.722656 96.445312 C 219.84375 99.339844 217.019531 102.292969 214.421875 105.464844 C 217.605469 102.875 220.5625 100.058594 223.464844 97.1875 C 226.34375 94.292969 229.164062 91.34375 231.761719 88.164062 Z M 231.761719 88.164062 " fill-opacity="1" fill-rule="nonzero"/><path fill="#ffffff" d="M 235.023438 93.253906 C 232.632812 95.503906 230.304688 97.808594 227.976562 100.117188 C 225.664062 102.441406 223.351562 104.765625 221.101562 107.148438 C 218.839844 109.523438 216.589844 111.910156 214.421875 114.378906 C 216.898438 112.214844 219.289062 109.972656 221.667969 107.714844 C 224.058594 105.46875 226.386719 103.164062 228.71875 100.855469 C 231.03125 98.53125 233.339844 96.207031 235.59375 93.824219 L 238.96875 90.246094 C 240.070312 89.027344 241.191406 87.835938 242.269531 86.59375 C 241.023438 87.667969 239.828125 88.789062 238.605469 89.882812 Z M 235.023438 93.253906 " fill-opacity="1" fill-rule="nonzero"/><path fill="#ffffff" d="M 223.355469 114.378906 C 226.535156 111.789062 229.492188 108.972656 232.394531 106.097656 C 235.273438 103.207031 238.097656 100.253906 240.691406 97.078125 C 237.507812 99.667969 234.550781 102.484375 231.652344 105.359375 C 228.773438 108.253906 225.953125 111.203125 223.355469 114.378906 Z M 223.355469 114.378906 " fill-opacity="1" fill-rule="nonzero"/><path fill="#ffffff" d="M 171.734375 160.648438 C 168.550781 163.238281 165.59375 166.054688 162.695312 168.925781 C 159.816406 171.824219 156.996094 174.773438 154.398438 177.949219 C 157.578125 175.355469 160.535156 172.539062 163.4375 169.667969 C 166.316406 166.773438 169.140625 163.824219 171.734375 160.648438 Z M 171.734375 160.648438 " fill-opacity="1" fill-rule="nonzero"/><path fill="#ffffff" d="M 174.996094 165.734375 C 172.609375 167.984375 170.277344 170.289062 167.949219 172.597656 C 165.636719 174.921875 163.328125 177.246094 161.074219 179.628906 C 158.8125 182.003906 156.5625 184.390625 154.398438 186.859375 C 156.871094 184.699219 159.261719 182.453125 161.644531 180.199219 C 164.03125 177.949219 166.363281 175.644531 168.691406 173.335938 C 171.003906 171.015625 173.3125 168.6875 175.566406 166.304688 L 178.945312 162.730469 C 180.042969 161.507812 181.167969 160.316406 182.242188 159.074219 C 181 160.148438 179.800781 161.269531 178.578125 162.367188 Z M 174.996094 165.734375 " fill-opacity="1" fill-rule="nonzero"/><path fill="#ffffff" d="M 163.328125 186.859375 C 166.511719 184.269531 169.46875 181.453125 172.367188 178.582031 C 175.25 175.6875 178.070312 172.738281 180.667969 169.558594 C 177.484375 172.148438 174.527344 174.964844 171.625 177.839844 C 168.75 180.734375 165.925781 183.6875 163.328125 186.859375 Z M 163.328125 186.859375 " fill-opacity="1" fill-rule="nonzero"/><g clip-path="url(#3b9aa28844)"><path fill="#ffffff" d="M 136.738281 73.09375 L 136.738281 202.851562 L 261.257812 202.851562 L 261.257812 73.09375 Z M 256.003906 197.609375 L 141.992188 197.609375 L 141.992188 78.335938 L 256.003906 78.335938 Z M 256.003906 197.609375 " fill-opacity="1" fill-rule="nonzero"/></g><g fill="#ffffff" fill-opacity="1"><g transform="translate(118.909882, 222.992341)"><g><path d="M 6.90625 -17.75 L 9.953125 -17.75 L 16.703125 0 L 13.15625 0 L 11.5 -4.421875 L 5.296875 -4.421875 L 3.671875 0 L 0.125 0 Z M 10.875 -6.84375 L 8.421875 -13.828125 L 5.875 -6.84375 Z M 10.875 -6.84375 "/></g></g></g><g fill="#ffffff" fill-opacity="1"><g transform="translate(135.707221, 222.992341)"><g><path d="M 1.5 -18.25 L 4.84375 -18.25 L 4.84375 -4.203125 C 4.84375 -3.710938 4.957031 -3.332031 5.1875 -3.0625 C 5.425781 -2.800781 5.765625 -2.671875 6.203125 -2.671875 C 6.398438 -2.671875 6.617188 -2.703125 6.859375 -2.765625 C 7.097656 -2.835938 7.328125 -2.925781 7.546875 -3.03125 L 8 -0.46875 C 7.550781 -0.257812 7.023438 -0.0976562 6.421875 0.015625 C 5.828125 0.140625 5.285156 0.203125 4.796875 0.203125 C 3.742188 0.203125 2.929688 -0.0703125 2.359375 -0.625 C 1.785156 -1.1875 1.5 -1.988281 1.5 -3.03125 Z M 1.5 -18.25 "/></g></g></g><g fill="#ffffff" fill-opacity="1"><g transform="translate(143.630961, 222.992341)"><g><path d="M 5.53125 0.25 C 4.175781 0.25 3.148438 -0.179688 2.453125 -1.046875 C 1.753906 -1.910156 1.40625 -3.195312 1.40625 -4.90625 L 1.40625 -13.09375 L 4.75 -13.09375 L 4.75 -5.625 C 4.75 -3.601562 5.472656 -2.59375 6.921875 -2.59375 C 7.578125 -2.59375 8.207031 -2.789062 8.8125 -3.1875 C 9.414062 -3.582031 9.910156 -4.175781 10.296875 -4.96875 L 10.296875 -13.09375 L 13.65625 -13.09375 L 13.65625 -3.84375 C 13.65625 -3.5 13.71875 -3.25 13.84375 -3.09375 C 13.96875 -2.945312 14.171875 -2.863281 14.453125 -2.84375 L 14.453125 0 C 14.117188 0.0625 13.835938 0.101562 13.609375 0.125 C 13.390625 0.144531 13.1875 0.15625 13 0.15625 C 12.394531 0.15625 11.90625 0.0195312 11.53125 -0.25 C 11.15625 -0.53125 10.9375 -0.914062 10.875 -1.40625 L 10.796875 -2.453125 C 10.210938 -1.546875 9.460938 -0.867188 8.546875 -0.421875 C 7.628906 0.0234375 6.625 0.25 5.53125 0.25 Z M 5.53125 0.25 "/></g></g></g><g fill="#ffffff" fill-opacity="1"><g transform="translate(159.078516, 222.992341)"><g><path d="M 21.875 0 L 18.53125 0 L 18.53125 -7.34375 C 18.53125 -8.394531 18.347656 -9.160156 17.984375 -9.640625 C 17.628906 -10.128906 17.132812 -10.375 16.5 -10.375 C 15.832031 -10.375 15.207031 -10.117188 14.625 -9.609375 C 14.039062 -9.097656 13.625 -8.4375 13.375 -7.625 L 13.375 0 L 10.03125 0 L 10.03125 -7.34375 C 10.03125 -8.394531 9.847656 -9.160156 9.484375 -9.640625 C 9.128906 -10.128906 8.632812 -10.375 8 -10.375 C 7.351562 -10.375 6.734375 -10.125 6.140625 -9.625 C 5.546875 -9.125 5.125 -8.46875 4.875 -7.65625 L 4.875 0 L 1.53125 0 L 1.53125 -13.09375 L 4.546875 -13.09375 L 4.546875 -10.671875 C 5.035156 -11.523438 5.695312 -12.179688 6.53125 -12.640625 C 7.375 -13.097656 8.335938 -13.328125 9.421875 -13.328125 C 10.523438 -13.328125 11.375 -13.054688 11.96875 -12.515625 C 12.570312 -11.984375 12.957031 -11.328125 13.125 -10.546875 C 13.65625 -11.453125 14.328125 -12.140625 15.140625 -12.609375 C 15.960938 -13.085938 16.898438 -13.328125 17.953125 -13.328125 C 18.753906 -13.328125 19.410156 -13.175781 19.921875 -12.875 C 20.441406 -12.570312 20.84375 -12.175781 21.125 -11.6875 C 21.40625 -11.207031 21.597656 -10.660156 21.703125 -10.046875 C 21.816406 -9.429688 21.875 -8.804688 21.875 -8.171875 Z M 21.875 0 "/></g></g></g><g fill="#ffffff" fill-opacity="1"><g transform="translate(182.349834, 222.992341)"><g><path d="M 1.53125 0 L 1.53125 -13.09375 L 4.875 -13.09375 L 4.875 0 Z M 1.53125 -14.921875 L 1.53125 -18.25 L 4.875 -18.25 L 4.875 -14.921875 Z M 1.53125 -14.921875 "/></g></g></g><g fill="#ffffff" fill-opacity="1"><g transform="translate(188.723826, 222.992341)"><g><path d="M 13.703125 0 L 10.34375 0 L 10.34375 -7.34375 C 10.34375 -8.394531 10.160156 -9.160156 9.796875 -9.640625 C 9.429688 -10.128906 8.925781 -10.375 8.28125 -10.375 C 7.945312 -10.375 7.601562 -10.304688 7.25 -10.171875 C 6.894531 -10.035156 6.5625 -9.847656 6.25 -9.609375 C 5.945312 -9.367188 5.671875 -9.082031 5.421875 -8.75 C 5.171875 -8.414062 4.988281 -8.050781 4.875 -7.65625 L 4.875 0 L 1.53125 0 L 1.53125 -13.09375 L 4.546875 -13.09375 L 4.546875 -10.671875 C 5.035156 -11.503906 5.738281 -12.15625 6.65625 -12.625 C 7.570312 -13.09375 8.601562 -13.328125 9.75 -13.328125 C 10.5625 -13.328125 11.226562 -13.175781 11.75 -12.875 C 12.269531 -12.570312 12.671875 -12.175781 12.953125 -11.6875 C 13.234375 -11.207031 13.425781 -10.660156 13.53125 -10.046875 C 13.644531 -9.429688 13.703125 -8.804688 13.703125 -8.171875 Z M 13.703125 0 "/></g></g></g><g fill="#ffffff" fill-opacity="1"><g transform="translate(203.821432, 222.992341)"><g><path d="M 1.53125 0 L 1.53125 -13.09375 L 4.875 -13.09375 L 4.875 0 Z M 1.53125 -14.921875 L 1.53125 -18.25 L 4.875 -18.25 L 4.875 -14.921875 Z M 1.53125 -14.921875 "/></g></g></g><g fill="#ffffff" fill-opacity="1"><g transform="translate(210.195424, 222.992341)"><g><path d="M 7.578125 0.25 C 6.503906 0.25 5.539062 0.0664062 4.6875 -0.296875 C 3.84375 -0.660156 3.125 -1.15625 2.53125 -1.78125 C 1.945312 -2.40625 1.492188 -3.125 1.171875 -3.9375 C 0.859375 -4.757812 0.703125 -5.625 0.703125 -6.53125 C 0.703125 -7.445312 0.859375 -8.3125 1.171875 -9.125 C 1.492188 -9.9375 1.945312 -10.65625 2.53125 -11.28125 C 3.125 -11.90625 3.84375 -12.398438 4.6875 -12.765625 C 5.539062 -13.140625 6.503906 -13.328125 7.578125 -13.328125 C 8.640625 -13.328125 9.59375 -13.140625 10.4375 -12.765625 C 11.28125 -12.398438 11.992188 -11.90625 12.578125 -11.28125 C 13.171875 -10.65625 13.625 -9.9375 13.9375 -9.125 C 14.257812 -8.3125 14.421875 -7.445312 14.421875 -6.53125 C 14.421875 -5.625 14.257812 -4.757812 13.9375 -3.9375 C 13.625 -3.125 13.175781 -2.40625 12.59375 -1.78125 C 12.007812 -1.15625 11.289062 -0.660156 10.4375 -0.296875 C 9.59375 0.0664062 8.640625 0.25 7.578125 0.25 Z M 4.15625 -6.53125 C 4.15625 -5.945312 4.238281 -5.414062 4.40625 -4.9375 C 4.582031 -4.457031 4.820312 -4.039062 5.125 -3.6875 C 5.4375 -3.34375 5.800781 -3.070312 6.21875 -2.875 C 6.632812 -2.6875 7.085938 -2.59375 7.578125 -2.59375 C 8.054688 -2.59375 8.503906 -2.6875 8.921875 -2.875 C 9.335938 -3.070312 9.695312 -3.34375 10 -3.6875 C 10.3125 -4.039062 10.554688 -4.457031 10.734375 -4.9375 C 10.910156 -5.425781 11 -5.960938 11 -6.546875 C 11 -7.117188 10.910156 -7.644531 10.734375 -8.125 C 10.554688 -8.601562 10.3125 -9.019531 10 -9.375 C 9.695312 -9.726562 9.335938 -10 8.921875 -10.1875 C 8.503906 -10.375 8.054688 -10.46875 7.578125 -10.46875 C 7.085938 -10.46875 6.632812 -10.367188 6.21875 -10.171875 C 5.800781 -9.972656 5.4375 -9.695312 5.125 -9.34375 C 4.820312 -9 4.582031 -8.582031 4.40625 -8.09375 C 4.238281 -7.613281 4.15625 -7.09375 4.15625 -6.53125 Z M 4.15625 -6.53125 "/></g></g></g><g fill="#ffffff" fill-opacity="1"><g transform="translate(225.343029, 222.992341)"><g><path d="M 1.84375 0 L 1.84375 -17.75 L 5.296875 -17.75 L 5.296875 -3.03125 L 14.34375 -3.03125 L 14.34375 0 Z M 1.84375 0 "/></g></g></g><g fill="#ffffff" fill-opacity="1"><g transform="translate(239.940722, 222.992341)"><g><path d="M 5.53125 0.25 C 4.175781 0.25 3.148438 -0.179688 2.453125 -1.046875 C 1.753906 -1.910156 1.40625 -3.195312 1.40625 -4.90625 L 1.40625 -13.09375 L 4.75 -13.09375 L 4.75 -5.625 C 4.75 -3.601562 5.472656 -2.59375 6.921875 -2.59375 C 7.578125 -2.59375 8.207031 -2.789062 8.8125 -3.1875 C 9.414062 -3.582031 9.910156 -4.175781 10.296875 -4.96875 L 10.296875 -13.09375 L 13.65625 -13.09375 L 13.65625 -3.84375 C 13.65625 -3.5 13.71875 -3.25 13.84375 -3.09375 C 13.96875 -2.945312 14.171875 -2.863281 14.453125 -2.84375 L 14.453125 0 C 14.117188 0.0625 13.835938 0.101562 13.609375 0.125 C 13.390625 0.144531 13.1875 0.15625 13 0.15625 C 12.394531 0.15625 11.90625 0.0195312 11.53125 -0.25 C 11.15625 -0.53125 10.9375 -0.914062 10.875 -1.40625 L 10.796875 -2.453125 C 10.210938 -1.546875 9.460938 -0.867188 8.546875 -0.421875 C 7.628906 0.0234375 6.625 0.25 5.53125 0.25 Z M 5.53125 0.25 "/></g></g></g><g fill="#ffffff" fill-opacity="1"><g transform="translate(255.388277, 222.992341)"><g><path d="M 1.53125 0 L 1.53125 -13.09375 L 4.875 -13.09375 L 4.875 0 Z M 1.53125 -14.921875 L 1.53125 -18.25 L 4.875 -18.25 L 4.875 -14.921875 Z M 1.53125 -14.921875 "/></g></g></g><g fill="#ffffff" fill-opacity="1"><g transform="translate(261.762269, 222.992341)"><g><path d="M 12.421875 -13.09375 C 12.304688 -13.21875 12.09375 -13.378906 11.78125 -13.578125 C 11.476562 -13.773438 11.101562 -13.96875 10.65625 -14.15625 C 10.21875 -14.351562 9.738281 -14.515625 9.21875 -14.640625 C 8.707031 -14.773438 8.1875 -14.84375 7.65625 -14.84375 C 6.695312 -14.84375 5.984375 -14.664062 5.515625 -14.3125 C 5.054688 -13.96875 4.828125 -13.476562 4.828125 -12.84375 C 4.828125 -12.476562 4.910156 -12.175781 5.078125 -11.9375 C 5.253906 -11.695312 5.507812 -11.484375 5.84375 -11.296875 C 6.175781 -11.117188 6.597656 -10.953125 7.109375 -10.796875 C 7.617188 -10.648438 8.207031 -10.492188 8.875 -10.328125 C 9.738281 -10.085938 10.523438 -9.832031 11.234375 -9.5625 C 11.941406 -9.300781 12.539062 -8.96875 13.03125 -8.5625 C 13.53125 -8.164062 13.910156 -7.6875 14.171875 -7.125 C 14.441406 -6.570312 14.578125 -5.890625 14.578125 -5.078125 C 14.578125 -4.128906 14.394531 -3.316406 14.03125 -2.640625 C 13.675781 -1.960938 13.191406 -1.414062 12.578125 -1 C 11.972656 -0.582031 11.273438 -0.273438 10.484375 -0.078125 C 9.691406 0.109375 8.863281 0.203125 8 0.203125 C 6.664062 0.203125 5.347656 0.00390625 4.046875 -0.390625 C 2.742188 -0.796875 1.578125 -1.363281 0.546875 -2.09375 L 2.078125 -5.078125 C 2.222656 -4.921875 2.488281 -4.722656 2.875 -4.484375 C 3.269531 -4.242188 3.734375 -4.003906 4.265625 -3.765625 C 4.804688 -3.523438 5.398438 -3.320312 6.046875 -3.15625 C 6.703125 -2.988281 7.367188 -2.90625 8.046875 -2.90625 C 9.953125 -2.90625 10.90625 -3.507812 10.90625 -4.71875 C 10.90625 -5.101562 10.796875 -5.425781 10.578125 -5.6875 C 10.359375 -5.957031 10.046875 -6.191406 9.640625 -6.390625 C 9.242188 -6.597656 8.757812 -6.785156 8.1875 -6.953125 C 7.625 -7.117188 6.992188 -7.300781 6.296875 -7.5 C 5.453125 -7.726562 4.71875 -7.976562 4.09375 -8.25 C 3.46875 -8.53125 2.945312 -8.859375 2.53125 -9.234375 C 2.113281 -9.609375 1.800781 -10.039062 1.59375 -10.53125 C 1.382812 -11.03125 1.28125 -11.617188 1.28125 -12.296875 C 1.28125 -13.203125 1.445312 -14.003906 1.78125 -14.703125 C 2.113281 -15.398438 2.570312 -15.984375 3.15625 -16.453125 C 3.75 -16.921875 4.4375 -17.273438 5.21875 -17.515625 C 6.007812 -17.753906 6.851562 -17.875 7.75 -17.875 C 9 -17.875 10.148438 -17.675781 11.203125 -17.28125 C 12.253906 -16.894531 13.171875 -16.4375 13.953125 -15.90625 Z M 12.421875 -13.09375 "/></g></g></g><path stroke-linecap="butt" transform="matrix(0.749737, 0.00233131, -0.00233212, 0.749996, 96.342576, 240.490337)" fill="none" stroke-linejoin="miter" d="M 14.997412 1.997526 L 256.102811 1.998071 " stroke="#ffffff" stroke-width="4" stroke-opacity="1" stroke-miterlimit="4"/><path stroke-linecap="butt" transform="matrix(2.998948, 0.00932524, -0.00932846, 2.999985, 96.33791, 241.990336)" fill-opacity="1" fill="#ffffff" fill-rule="nonzero" stroke-linejoin="round" d="M 0.500063 -1.499643 L 3.499812 -1.499853 L 3.500026 1.500161 L 0.500277 1.500371 Z M 0.500063 -1.499643 " stroke="#ffffff" stroke-width="1" stroke-opacity="1" stroke-miterlimit="4"/><path stroke-linecap="butt" transform="matrix(2.998948, 0.00932524, -0.00932846, 2.999985, 299.59176, 242.622343)" fill-opacity="1" fill="#ffffff" fill-rule="nonzero" stroke-linejoin="round" d="M -3.50002 -1.499961 L -0.500271 -1.500171 L -0.500057 1.499843 L -3.499806 1.500053 Z M -3.50002 -1.499961 " stroke="#ffffff" stroke-width="1" stroke-opacity="1" stroke-miterlimit="4"/><path stroke-linecap="butt" transform="matrix(-0.75004, -0.00233225, 0.00233212, -0.749996, 298.07052, 55.989478)" fill="none" stroke-linejoin="miter" d="M 15.000497 2.001834 L 253.993003 1.99823 " stroke="#ffffff" stroke-width="4" stroke-opacity="1" stroke-miterlimit="4"/><path stroke-linecap="butt" transform="matrix(-3.000159, -0.009329, 0.00932846, -2.999985, 298.075208, 54.489488)" fill-opacity="1" fill="#ffffff" fill-rule="nonzero" stroke-linejoin="round" d="M 0.499546 -1.499857 L 3.499386 -1.50007 L 3.4996 1.499944 L 0.499759 1.500157 Z M 0.499546 -1.499857 " stroke="#ffffff" stroke-width="1" stroke-opacity="1" stroke-miterlimit="4"/><path stroke-linecap="butt" transform="matrix(-3.000159, -0.009329, 0.00932846, -2.999985, 96.321622, 53.862135)" fill-opacity="1" fill="#ffffff" fill-rule="nonzero" stroke-linejoin="round" d="M -3.500136 -1.499922 L -0.500295 -1.500136 L -0.500082 1.499878 L -3.499922 1.500092 Z M -3.500136 -1.499922 " stroke="#ffffff" stroke-width="1" stroke-opacity="1" stroke-miterlimit="4"/><path stroke-linecap="butt" transform="matrix(0.00552175, 0.749324, -0.74998, 0.00552658, 101.962632, 46.099662)" fill="none" stroke-linejoin="miter" d="M 15.001325 1.998174 L 253.252405 2.002257 " stroke="#ffffff" stroke-width="4" stroke-opacity="1" stroke-miterlimit="4"/><path stroke-linecap="butt" transform="matrix(0.022087, 2.997297, -2.999918, 0.0221063, 100.462668, 46.110719)" fill-opacity="1" fill="#ffffff" fill-rule="nonzero" stroke-linejoin="round" d="M 0.500637 -1.499684 L 3.499433 -1.499742 L 3.499462 1.50034 L 0.499363 1.500388 Z M 0.500637 -1.499684 " stroke="#ffffff" stroke-width="1" stroke-opacity="1" stroke-miterlimit="4"/><path stroke-linecap="butt" transform="matrix(0.022087, 2.997297, -2.999918, 0.0221063, 101.94388, 247.116866)" fill-opacity="1" fill="#ffffff" fill-rule="nonzero" stroke-linejoin="round" d="M -3.499803 -1.500243 L -0.499704 -1.500291 L -0.499676 1.499791 L -3.499775 1.499839 Z M -3.499803 -1.500243 " stroke="#ffffff" stroke-width="1" stroke-opacity="1" stroke-miterlimit="4"/><path stroke-linecap="butt" transform="matrix(-0.00552333, -0.749539, 0.74998, -0.00552658, 292.479126, 248.859297)" fill="none" stroke-linejoin="miter" d="M 14.999597 1.997725 L 251.16025 2.002542 " stroke="#ffffff" stroke-width="4" stroke-opacity="1" stroke-miterlimit="4"/><path stroke-linecap="butt" transform="matrix(-0.0220933, -2.998157, 2.999918, -0.0221063, 293.979094, 248.848252)" fill-opacity="1" fill="#ffffff" fill-rule="nonzero" stroke-linejoin="round" d="M 0.499839 -1.499808 L 3.50038 -1.499846 L 3.500408 1.500236 L 0.499867 1.500274 Z M 0.499839 -1.499808 " stroke="#ffffff" stroke-width="1" stroke-opacity="1" stroke-miterlimit="4"/><path stroke-linecap="butt" transform="matrix(-0.0220933, -2.998157, 2.999918, -0.0221063, 292.508979, 49.349106)" fill-opacity="1" fill="#ffffff" fill-rule="nonzero" stroke-linejoin="round" d="M -3.499727 -1.500162 L -0.500488 -1.500209 L -0.50046 1.499872 L -3.499698 1.49992 Z M -3.499727 -1.500162 " stroke="#ffffff" stroke-width="1" stroke-opacity="1" stroke-miterlimit="4"/></svg>