<svg xmlns="http://www.w3.org/2000/svg" xmlns:xlink="http://www.w3.org/1999/xlink" width="528" zoomAndPan="magnify" viewBox="0 0 396 305.999988" height="408" preserveAspectRatio="xMidYMid meet" version="1.0"><defs><g/><clipPath id="48967728f1"><path d="M 133.015625 71.421875 L 257.515625 71.421875 L 257.515625 201.171875 L 133.015625 201.171875 Z M 133.015625 71.421875 " clip-rule="nonzero"/></clipPath></defs><rect x="-39.6" width="475.2" fill="#ffffff" y="-30.599999" height="367.199986" fill-opacity="1"/><path fill="#000000" d="M 197.902344 193.449219 L 249.554688 193.449219 L 249.554688 79.15625 L 141 79.15625 L 141 193.449219 Z M 197.902344 84.398438 L 244.300781 84.398438 L 244.300781 188.207031 L 197.902344 188.207031 Z M 192.648438 84.398438 L 192.648438 113.496094 L 146.253906 113.496094 L 146.253906 84.398438 Z M 146.253906 188.207031 L 146.253906 118.738281 L 192.648438 118.738281 L 192.648438 188.207031 Z M 146.253906 188.207031 " fill-opacity="1" fill-rule="nonzero"/><path fill="#000000" d="M 228.039062 86.496094 C 224.855469 89.085938 221.898438 91.902344 219 94.777344 C 216.121094 97.671875 213.300781 100.621094 210.703125 103.796875 C 213.882812 101.203125 216.839844 98.386719 219.742188 95.515625 C 222.621094 92.621094 225.445312 89.671875 228.039062 86.496094 Z M 228.039062 86.496094 " fill-opacity="1" fill-rule="nonzero"/><path fill="#000000" d="M 231.300781 91.585938 C 228.914062 93.832031 226.582031 96.136719 224.253906 98.445312 C 221.941406 100.769531 219.632812 103.09375 217.378906 105.480469 C 215.117188 107.855469 212.867188 110.242188 210.703125 112.710938 C 213.175781 110.546875 215.566406 108.304688 217.949219 106.046875 C 220.335938 103.796875 222.667969 101.492188 224.996094 99.1875 C 227.308594 96.863281 229.617188 94.539062 231.871094 92.15625 L 235.25 88.578125 C 236.347656 87.359375 237.472656 86.164062 238.546875 84.921875 C 237.304688 85.996094 236.105469 87.117188 234.882812 88.214844 Z M 231.300781 91.585938 " fill-opacity="1" fill-rule="nonzero"/><path fill="#000000" d="M 219.632812 112.710938 C 222.816406 110.117188 225.773438 107.300781 228.671875 104.429688 C 231.554688 101.535156 234.375 98.585938 236.972656 95.410156 C 233.789062 98 230.832031 100.816406 227.929688 103.6875 C 225.054688 106.582031 222.230469 109.535156 219.632812 112.710938 Z M 219.632812 112.710938 " fill-opacity="1" fill-rule="nonzero"/><path fill="#000000" d="M 168.011719 158.976562 C 164.828125 161.566406 161.875 164.382812 158.972656 167.257812 C 156.09375 170.152344 153.273438 173.101562 150.675781 176.277344 C 153.855469 173.6875 156.8125 170.871094 159.714844 168 C 162.59375 165.105469 165.417969 162.152344 168.011719 158.976562 Z M 168.011719 158.976562 " fill-opacity="1" fill-rule="nonzero"/><path fill="#000000" d="M 171.273438 164.066406 C 168.886719 166.3125 166.554688 168.621094 164.226562 170.925781 C 161.917969 173.25 159.605469 175.578125 157.351562 177.960938 C 155.089844 180.335938 152.84375 182.722656 150.675781 185.191406 C 153.148438 183.027344 155.542969 180.785156 157.921875 178.527344 C 160.308594 176.28125 162.640625 173.972656 164.96875 171.667969 C 167.28125 169.34375 169.59375 167.019531 171.847656 164.636719 L 175.222656 161.058594 C 176.320312 159.839844 177.445312 158.644531 178.519531 157.402344 C 177.277344 158.476562 176.082031 159.597656 174.859375 160.695312 Z M 171.273438 164.066406 " fill-opacity="1" fill-rule="nonzero"/><path fill="#000000" d="M 159.605469 185.191406 C 162.789062 182.597656 165.746094 179.78125 168.648438 176.910156 C 171.527344 174.015625 174.347656 171.066406 176.945312 167.890625 C 173.761719 170.480469 170.804688 173.296875 167.90625 176.167969 C 165.027344 179.066406 162.203125 182.015625 159.605469 185.191406 Z M 159.605469 185.191406 " fill-opacity="1" fill-rule="nonzero"/><g clip-path="url(#48967728f1)"><path fill="#000000" d="M 133.015625 71.421875 L 133.015625 201.179688 L 257.535156 201.179688 L 257.535156 71.421875 Z M 252.28125 195.9375 L 138.269531 195.9375 L 138.269531 76.664062 L 252.28125 76.664062 Z M 252.28125 195.9375 " fill-opacity="1" fill-rule="nonzero"/></g><g fill="#000000" fill-opacity="1"><g transform="translate(115.18839, 221.322462)"><g><path d="M 6.90625 -17.75 L 9.953125 -17.75 L 16.703125 0 L 13.15625 0 L 11.5 -4.421875 L 5.296875 -4.421875 L 3.671875 0 L 0.125 0 Z M 10.875 -6.84375 L 8.421875 -13.828125 L 5.875 -6.84375 Z M 10.875 -6.84375 "/></g></g></g><g fill="#000000" fill-opacity="1"><g transform="translate(131.985729, 221.322462)"><g><path d="M 1.5 -18.25 L 4.84375 -18.25 L 4.84375 -4.203125 C 4.84375 -3.710938 4.957031 -3.332031 5.1875 -3.0625 C 5.425781 -2.800781 5.765625 -2.671875 6.203125 -2.671875 C 6.398438 -2.671875 6.617188 -2.703125 6.859375 -2.765625 C 7.097656 -2.835938 7.328125 -2.925781 7.546875 -3.03125 L 8 -0.46875 C 7.550781 -0.257812 7.023438 -0.0976562 6.421875 0.015625 C 5.828125 0.140625 5.285156 0.203125 4.796875 0.203125 C 3.742188 0.203125 2.929688 -0.0703125 2.359375 -0.625 C 1.785156 -1.1875 1.5 -1.988281 1.5 -3.03125 Z M 1.5 -18.25 "/></g></g></g><g fill="#000000" fill-opacity="1"><g transform="translate(139.909469, 221.322462)"><g><path d="M 5.53125 0.25 C 4.175781 0.25 3.148438 -0.179688 2.453125 -1.046875 C 1.753906 -1.910156 1.40625 -3.195312 1.40625 -4.90625 L 1.40625 -13.09375 L 4.75 -13.09375 L 4.75 -5.625 C 4.75 -3.601562 5.472656 -2.59375 6.921875 -2.59375 C 7.578125 -2.59375 8.207031 -2.789062 8.8125 -3.1875 C 9.414062 -3.582031 9.910156 -4.175781 10.296875 -4.96875 L 10.296875 -13.09375 L 13.65625 -13.09375 L 13.65625 -3.84375 C 13.65625 -3.5 13.71875 -3.25 13.84375 -3.09375 C 13.96875 -2.945312 14.171875 -2.863281 14.453125 -2.84375 L 14.453125 0 C 14.117188 0.0625 13.835938 0.101562 13.609375 0.125 C 13.390625 0.144531 13.1875 0.15625 13 0.15625 C 12.394531 0.15625 11.90625 0.0195312 11.53125 -0.25 C 11.15625 -0.53125 10.9375 -0.914062 10.875 -1.40625 L 10.796875 -2.453125 C 10.210938 -1.546875 9.460938 -0.867188 8.546875 -0.421875 C 7.628906 0.0234375 6.625 0.25 5.53125 0.25 Z M 5.53125 0.25 "/></g></g></g><g fill="#000000" fill-opacity="1"><g transform="translate(155.357023, 221.322462)"><g><path d="M 21.875 0 L 18.53125 0 L 18.53125 -7.34375 C 18.53125 -8.394531 18.347656 -9.160156 17.984375 -9.640625 C 17.628906 -10.128906 17.132812 -10.375 16.5 -10.375 C 15.832031 -10.375 15.207031 -10.117188 14.625 -9.609375 C 14.039062 -9.097656 13.625 -8.4375 13.375 -7.625 L 13.375 0 L 10.03125 0 L 10.03125 -7.34375 C 10.03125 -8.394531 9.847656 -9.160156 9.484375 -9.640625 C 9.128906 -10.128906 8.632812 -10.375 8 -10.375 C 7.351562 -10.375 6.734375 -10.125 6.140625 -9.625 C 5.546875 -9.125 5.125 -8.46875 4.875 -7.65625 L 4.875 0 L 1.53125 0 L 1.53125 -13.09375 L 4.546875 -13.09375 L 4.546875 -10.671875 C 5.035156 -11.523438 5.695312 -12.179688 6.53125 -12.640625 C 7.375 -13.097656 8.335938 -13.328125 9.421875 -13.328125 C 10.523438 -13.328125 11.375 -13.054688 11.96875 -12.515625 C 12.570312 -11.984375 12.957031 -11.328125 13.125 -10.546875 C 13.65625 -11.453125 14.328125 -12.140625 15.140625 -12.609375 C 15.960938 -13.085938 16.898438 -13.328125 17.953125 -13.328125 C 18.753906 -13.328125 19.410156 -13.175781 19.921875 -12.875 C 20.441406 -12.570312 20.84375 -12.175781 21.125 -11.6875 C 21.40625 -11.207031 21.597656 -10.660156 21.703125 -10.046875 C 21.816406 -9.429688 21.875 -8.804688 21.875 -8.171875 Z M 21.875 0 "/></g></g></g><g fill="#000000" fill-opacity="1"><g transform="translate(178.628342, 221.322462)"><g><path d="M 1.53125 0 L 1.53125 -13.09375 L 4.875 -13.09375 L 4.875 0 Z M 1.53125 -14.921875 L 1.53125 -18.25 L 4.875 -18.25 L 4.875 -14.921875 Z M 1.53125 -14.921875 "/></g></g></g><g fill="#000000" fill-opacity="1"><g transform="translate(185.002334, 221.322462)"><g><path d="M 13.703125 0 L 10.34375 0 L 10.34375 -7.34375 C 10.34375 -8.394531 10.160156 -9.160156 9.796875 -9.640625 C 9.429688 -10.128906 8.925781 -10.375 8.28125 -10.375 C 7.945312 -10.375 7.601562 -10.304688 7.25 -10.171875 C 6.894531 -10.035156 6.5625 -9.847656 6.25 -9.609375 C 5.945312 -9.367188 5.671875 -9.082031 5.421875 -8.75 C 5.171875 -8.414062 4.988281 -8.050781 4.875 -7.65625 L 4.875 0 L 1.53125 0 L 1.53125 -13.09375 L 4.546875 -13.09375 L 4.546875 -10.671875 C 5.035156 -11.503906 5.738281 -12.15625 6.65625 -12.625 C 7.570312 -13.09375 8.601562 -13.328125 9.75 -13.328125 C 10.5625 -13.328125 11.226562 -13.175781 11.75 -12.875 C 12.269531 -12.570312 12.671875 -12.175781 12.953125 -11.6875 C 13.234375 -11.207031 13.425781 -10.660156 13.53125 -10.046875 C 13.644531 -9.429688 13.703125 -8.804688 13.703125 -8.171875 Z M 13.703125 0 "/></g></g></g><g fill="#000000" fill-opacity="1"><g transform="translate(200.099939, 221.322462)"><g><path d="M 1.53125 0 L 1.53125 -13.09375 L 4.875 -13.09375 L 4.875 0 Z M 1.53125 -14.921875 L 1.53125 -18.25 L 4.875 -18.25 L 4.875 -14.921875 Z M 1.53125 -14.921875 "/></g></g></g><g fill="#000000" fill-opacity="1"><g transform="translate(206.473932, 221.322462)"><g><path d="M 7.578125 0.25 C 6.503906 0.25 5.539062 0.0664062 4.6875 -0.296875 C 3.84375 -0.660156 3.125 -1.15625 2.53125 -1.78125 C 1.945312 -2.40625 1.492188 -3.125 1.171875 -3.9375 C 0.859375 -4.757812 0.703125 -5.625 0.703125 -6.53125 C 0.703125 -7.445312 0.859375 -8.3125 1.171875 -9.125 C 1.492188 -9.9375 1.945312 -10.65625 2.53125 -11.28125 C 3.125 -11.90625 3.84375 -12.398438 4.6875 -12.765625 C 5.539062 -13.140625 6.503906 -13.328125 7.578125 -13.328125 C 8.640625 -13.328125 9.59375 -13.140625 10.4375 -12.765625 C 11.28125 -12.398438 11.992188 -11.90625 12.578125 -11.28125 C 13.171875 -10.65625 13.625 -9.9375 13.9375 -9.125 C 14.257812 -8.3125 14.421875 -7.445312 14.421875 -6.53125 C 14.421875 -5.625 14.257812 -4.757812 13.9375 -3.9375 C 13.625 -3.125 13.175781 -2.40625 12.59375 -1.78125 C 12.007812 -1.15625 11.289062 -0.660156 10.4375 -0.296875 C 9.59375 0.0664062 8.640625 0.25 7.578125 0.25 Z M 4.15625 -6.53125 C 4.15625 -5.945312 4.238281 -5.414062 4.40625 -4.9375 C 4.582031 -4.457031 4.820312 -4.039062 5.125 -3.6875 C 5.4375 -3.34375 5.800781 -3.070312 6.21875 -2.875 C 6.632812 -2.6875 7.085938 -2.59375 7.578125 -2.59375 C 8.054688 -2.59375 8.503906 -2.6875 8.921875 -2.875 C 9.335938 -3.070312 9.695312 -3.34375 10 -3.6875 C 10.3125 -4.039062 10.554688 -4.457031 10.734375 -4.9375 C 10.910156 -5.425781 11 -5.960938 11 -6.546875 C 11 -7.117188 10.910156 -7.644531 10.734375 -8.125 C 10.554688 -8.601562 10.3125 -9.019531 10 -9.375 C 9.695312 -9.726562 9.335938 -10 8.921875 -10.1875 C 8.503906 -10.375 8.054688 -10.46875 7.578125 -10.46875 C 7.085938 -10.46875 6.632812 -10.367188 6.21875 -10.171875 C 5.800781 -9.972656 5.4375 -9.695312 5.125 -9.34375 C 4.820312 -9 4.582031 -8.582031 4.40625 -8.09375 C 4.238281 -7.613281 4.15625 -7.09375 4.15625 -6.53125 Z M 4.15625 -6.53125 "/></g></g></g><g fill="#000000" fill-opacity="1"><g transform="translate(221.621536, 221.322462)"><g><path d="M 1.84375 0 L 1.84375 -17.75 L 5.296875 -17.75 L 5.296875 -3.03125 L 14.34375 -3.03125 L 14.34375 0 Z M 1.84375 0 "/></g></g></g><g fill="#000000" fill-opacity="1"><g transform="translate(236.21923, 221.322462)"><g><path d="M 5.53125 0.25 C 4.175781 0.25 3.148438 -0.179688 2.453125 -1.046875 C 1.753906 -1.910156 1.40625 -3.195312 1.40625 -4.90625 L 1.40625 -13.09375 L 4.75 -13.09375 L 4.75 -5.625 C 4.75 -3.601562 5.472656 -2.59375 6.921875 -2.59375 C 7.578125 -2.59375 8.207031 -2.789062 8.8125 -3.1875 C 9.414062 -3.582031 9.910156 -4.175781 10.296875 -4.96875 L 10.296875 -13.09375 L 13.65625 -13.09375 L 13.65625 -3.84375 C 13.65625 -3.5 13.71875 -3.25 13.84375 -3.09375 C 13.96875 -2.945312 14.171875 -2.863281 14.453125 -2.84375 L 14.453125 0 C 14.117188 0.0625 13.835938 0.101562 13.609375 0.125 C 13.390625 0.144531 13.1875 0.15625 13 0.15625 C 12.394531 0.15625 11.90625 0.0195312 11.53125 -0.25 C 11.15625 -0.53125 10.9375 -0.914062 10.875 -1.40625 L 10.796875 -2.453125 C 10.210938 -1.546875 9.460938 -0.867188 8.546875 -0.421875 C 7.628906 0.0234375 6.625 0.25 5.53125 0.25 Z M 5.53125 0.25 "/></g></g></g><g fill="#000000" fill-opacity="1"><g transform="translate(251.666784, 221.322462)"><g><path d="M 1.53125 0 L 1.53125 -13.09375 L 4.875 -13.09375 L 4.875 0 Z M 1.53125 -14.921875 L 1.53125 -18.25 L 4.875 -18.25 L 4.875 -14.921875 Z M 1.53125 -14.921875 "/></g></g></g><g fill="#000000" fill-opacity="1"><g transform="translate(258.040777, 221.322462)"><g><path d="M 12.421875 -13.09375 C 12.304688 -13.21875 12.09375 -13.378906 11.78125 -13.578125 C 11.476562 -13.773438 11.101562 -13.96875 10.65625 -14.15625 C 10.21875 -14.351562 9.738281 -14.515625 9.21875 -14.640625 C 8.707031 -14.773438 8.1875 -14.84375 7.65625 -14.84375 C 6.695312 -14.84375 5.984375 -14.664062 5.515625 -14.3125 C 5.054688 -13.96875 4.828125 -13.476562 4.828125 -12.84375 C 4.828125 -12.476562 4.910156 -12.175781 5.078125 -11.9375 C 5.253906 -11.695312 5.507812 -11.484375 5.84375 -11.296875 C 6.175781 -11.117188 6.597656 -10.953125 7.109375 -10.796875 C 7.617188 -10.648438 8.207031 -10.492188 8.875 -10.328125 C 9.738281 -10.085938 10.523438 -9.832031 11.234375 -9.5625 C 11.941406 -9.300781 12.539062 -8.96875 13.03125 -8.5625 C 13.53125 -8.164062 13.910156 -7.6875 14.171875 -7.125 C 14.441406 -6.570312 14.578125 -5.890625 14.578125 -5.078125 C 14.578125 -4.128906 14.394531 -3.316406 14.03125 -2.640625 C 13.675781 -1.960938 13.191406 -1.414062 12.578125 -1 C 11.972656 -0.582031 11.273438 -0.273438 10.484375 -0.078125 C 9.691406 0.109375 8.863281 0.203125 8 0.203125 C 6.664062 0.203125 5.347656 0.00390625 4.046875 -0.390625 C 2.742188 -0.796875 1.578125 -1.363281 0.546875 -2.09375 L 2.078125 -5.078125 C 2.222656 -4.921875 2.488281 -4.722656 2.875 -4.484375 C 3.269531 -4.242188 3.734375 -4.003906 4.265625 -3.765625 C 4.804688 -3.523438 5.398438 -3.320312 6.046875 -3.15625 C 6.703125 -2.988281 7.367188 -2.90625 8.046875 -2.90625 C 9.953125 -2.90625 10.90625 -3.507812 10.90625 -4.71875 C 10.90625 -5.101562 10.796875 -5.425781 10.578125 -5.6875 C 10.359375 -5.957031 10.046875 -6.191406 9.640625 -6.390625 C 9.242188 -6.597656 8.757812 -6.785156 8.1875 -6.953125 C 7.625 -7.117188 6.992188 -7.300781 6.296875 -7.5 C 5.453125 -7.726562 4.71875 -7.976562 4.09375 -8.25 C 3.46875 -8.53125 2.945312 -8.859375 2.53125 -9.234375 C 2.113281 -9.609375 1.800781 -10.039062 1.59375 -10.53125 C 1.382812 -11.03125 1.28125 -11.617188 1.28125 -12.296875 C 1.28125 -13.203125 1.445312 -14.003906 1.78125 -14.703125 C 2.113281 -15.398438 2.570312 -15.984375 3.15625 -16.453125 C 3.75 -16.921875 4.4375 -17.273438 5.21875 -17.515625 C 6.007812 -17.753906 6.851562 -17.875 7.75 -17.875 C 9 -17.875 10.148438 -17.675781 11.203125 -17.28125 C 12.253906 -16.894531 13.171875 -16.4375 13.953125 -15.90625 Z M 12.421875 -13.09375 "/></g></g></g><path stroke-linecap="butt" transform="matrix(0.749737, 0.00233131, -0.00233212, 0.749996, 92.621081, 238.820489)" fill="none" stroke-linejoin="miter" d="M 15.001081 2.00002 L 256.10127 2.000581 " stroke="#000000" stroke-width="4" stroke-opacity="1" stroke-miterlimit="4"/><path stroke-linecap="butt" transform="matrix(2.998948, 0.00932524, -0.00932846, 2.999985, 92.616415, 240.320431)" fill-opacity="1" fill="#000000" fill-rule="nonzero" stroke-linejoin="round" d="M 0.499674 -1.500298 L 3.499423 -1.500508 L 3.499637 1.499506 L 0.499888 1.499716 Z M 0.499674 -1.500298 " stroke="#000000" stroke-width="1" stroke-opacity="1" stroke-miterlimit="4"/><path stroke-linecap="butt" transform="matrix(2.998948, 0.00932524, -0.00932846, 2.999985, 295.870268, 240.952423)" fill-opacity="1" fill="#000000" fill-rule="nonzero" stroke-linejoin="round" d="M -3.50041 -1.500611 L -0.499354 -1.499523 L -0.500443 1.500495 L -3.500196 1.499403 Z M -3.50041 -1.500611 " stroke="#000000" stroke-width="1" stroke-opacity="1" stroke-miterlimit="4"/><path stroke-linecap="butt" transform="matrix(-0.75004, -0.00233225, 0.00233212, -0.749996, 294.349057, 54.319596)" fill="none" stroke-linejoin="miter" d="M 15.002079 1.999278 L 253.989393 2.000899 " stroke="#000000" stroke-width="4" stroke-opacity="1" stroke-miterlimit="4"/><path stroke-linecap="butt" transform="matrix(-3.000159, -0.009329, 0.00932846, -2.999985, 294.353684, 52.819597)" fill-opacity="1" fill="#000000" fill-rule="nonzero" stroke-linejoin="round" d="M 0.499921 -1.500498 L 3.499765 -1.49941 L 3.499979 1.500604 L 0.500135 1.499516 Z M 0.499921 -1.500498 " stroke="#000000" stroke-width="1" stroke-opacity="1" stroke-miterlimit="4"/><path stroke-linecap="butt" transform="matrix(-3.000159, -0.009329, 0.00932846, -2.999985, 92.600127, 52.192232)" fill-opacity="1" fill="#000000" fill-rule="nonzero" stroke-linejoin="round" d="M -3.49975 -1.500568 L -0.499906 -1.49948 L -0.499692 1.500534 L -3.499537 1.499446 Z M -3.49975 -1.500568 " stroke="#000000" stroke-width="1" stroke-opacity="1" stroke-miterlimit="4"/><path stroke-linecap="butt" transform="matrix(0.00552175, 0.749324, -0.74998, 0.00552658, 98.241129, 44.429761)" fill="none" stroke-linejoin="miter" d="M 14.998679 1.999694 L 253.249797 1.998569 " stroke="#000000" stroke-width="4" stroke-opacity="1" stroke-miterlimit="4"/><path stroke-linecap="butt" transform="matrix(0.022087, 2.997297, -2.999918, 0.0221063, 96.741175, 44.440806)" fill-opacity="1" fill="#000000" fill-rule="nonzero" stroke-linejoin="round" d="M 0.499989 -1.500603 L 3.500079 -1.499349 L 3.500117 1.499431 L 0.500018 1.499478 Z M 0.499989 -1.500603 " stroke="#000000" stroke-width="1" stroke-opacity="1" stroke-miterlimit="4"/><path stroke-linecap="butt" transform="matrix(0.022087, 2.997297, -2.999918, 0.0221063, 98.222388, 245.446972)" fill-opacity="1" fill="#000000" fill-rule="nonzero" stroke-linejoin="round" d="M -3.500467 -1.49986 L -0.500368 -1.499908 L -0.50034 1.500174 L -3.500439 1.500222 Z M -3.500467 -1.49986 " stroke="#000000" stroke-width="1" stroke-opacity="1" stroke-miterlimit="4"/><path stroke-linecap="butt" transform="matrix(-0.00552333, -0.749539, 0.74998, -0.00552658, 288.757631, 247.189432)" fill="none" stroke-linejoin="miter" d="M 15.002252 2.001405 L 251.162943 2.001013 " stroke="#000000" stroke-width="4" stroke-opacity="1" stroke-miterlimit="4"/><path stroke-linecap="butt" transform="matrix(-0.0220933, -2.998157, 2.999918, -0.0221063, 290.257602, 247.178358)" fill-opacity="1" fill="#000000" fill-rule="nonzero" stroke-linejoin="round" d="M 0.500502 -1.500191 L 3.499741 -1.500239 L 3.499769 1.499843 L 0.500531 1.499891 Z M 0.500502 -1.500191 " stroke="#000000" stroke-width="1" stroke-opacity="1" stroke-miterlimit="4"/><path stroke-linecap="butt" transform="matrix(-0.0220933, -2.998157, 2.999918, -0.0221063, 288.787484, 47.679224)" fill-opacity="1" fill="#000000" fill-rule="nonzero" stroke-linejoin="round" d="M -3.500362 -1.500553 L -0.499821 -1.500591 L -0.499792 1.49949 L -3.500333 1.499528 Z M -3.500362 -1.500553 " stroke="#000000" stroke-width="1" stroke-opacity="1" stroke-miterlimit="4"/></svg>