<svg xmlns="http://www.w3.org/2000/svg" xmlns:xlink="http://www.w3.org/1999/xlink" width="528" zoomAndPan="magnify" viewBox="0 0 396 305.999988" height="408" preserveAspectRatio="xMidYMid meet" version="1.0"><defs><g/><clipPath id="c5cbe6390f"><path d="M 178.597656 96 L 372.097656 96 L 372.097656 126.746094 L 178.597656 126.746094 Z M 178.597656 96 " clip-rule="nonzero"/></clipPath><clipPath id="fcd0a1ab79"><path d="M 224 92.246094 L 235 92.246094 L 235 102 L 224 102 Z M 224 92.246094 " clip-rule="nonzero"/></clipPath><clipPath id="2fc83e46b2"><path d="M 315 92.246094 L 326 92.246094 L 326 102 L 315 102 Z M 315 92.246094 " clip-rule="nonzero"/></clipPath><clipPath id="8695f4a6fa"><path d="M 145.339844 81.96875 L 200.839844 81.96875 L 200.839844 137.46875 L 145.339844 137.46875 Z M 145.339844 81.96875 " clip-rule="nonzero"/></clipPath></defs><g clip-path="url(#c5cbe6390f)"><path fill="#2aa81a" d="M 360.640625 126.746094 L 190.054688 126.746094 C 183.773438 126.746094 178.660156 121.679688 178.660156 115.453125 L 178.660156 108.128906 C 178.660156 101.902344 183.773438 96.839844 190.054688 96.839844 L 227.75 96.839844 L 227.75 97.277344 L 190.054688 97.277344 C 184.015625 97.277344 179.101562 102.144531 179.101562 108.128906 L 179.101562 115.453125 C 179.101562 121.4375 184.015625 126.308594 190.054688 126.308594 L 360.640625 126.308594 C 366.683594 126.308594 371.597656 121.4375 371.597656 115.453125 L 371.597656 108.128906 C 371.597656 102.144531 366.683594 97.277344 360.640625 97.277344 L 322.945312 97.277344 L 322.945312 96.839844 L 360.640625 96.839844 C 366.925781 96.839844 372.039062 101.902344 372.039062 108.128906 L 372.039062 115.453125 C 372.039062 121.679688 366.925781 126.746094 360.640625 126.746094 Z M 360.640625 126.746094 " fill-opacity="1" fill-rule="nonzero"/></g><g clip-path="url(#fcd0a1ab79)"><path fill="#2aa81a" d="M 229.472656 92.246094 C 229.472656 92.246094 229.570312 94.554688 228.0625 95.980469 C 227.28125 96.71875 225.902344 97.058594 224.203125 97.058594 C 226.027344 97.058594 227.371094 97.578125 228.152344 98.398438 C 229.5 99.8125 229.472656 101.867188 229.472656 101.867188 C 229.472656 101.867188 229.46875 99.75 230.757812 98.339844 C 231.539062 97.492188 232.867188 97.058594 234.738281 97.058594 C 233.023438 97.058594 231.566406 96.703125 230.78125 95.953125 C 229.296875 94.527344 229.472656 92.246094 229.472656 92.246094 Z M 229.472656 92.246094 " fill-opacity="1" fill-rule="nonzero"/></g><g clip-path="url(#2fc83e46b2)"><path fill="#2aa81a" d="M 320.589844 92.246094 C 320.589844 92.246094 320.6875 94.554688 319.179688 95.980469 C 318.398438 96.71875 317.019531 97.058594 315.324219 97.058594 C 317.144531 97.058594 318.488281 97.578125 319.269531 98.398438 C 320.617188 99.8125 320.589844 101.867188 320.589844 101.867188 C 320.589844 101.867188 320.585938 99.75 321.875 98.339844 C 322.65625 97.492188 323.984375 97.058594 325.855469 97.058594 C 324.140625 97.058594 322.683594 96.703125 321.902344 95.953125 C 320.414062 94.527344 320.589844 92.246094 320.589844 92.246094 Z M 320.589844 92.246094 " fill-opacity="1" fill-rule="nonzero"/></g><path fill="#2aa81a" d="M 206.019531 101.789062 L 344.746094 101.789062 C 345.765625 101.789062 346.746094 102.195312 347.46875 102.914062 C 348.1875 103.636719 348.59375 104.613281 348.59375 105.632812 L 348.59375 119.898438 C 348.59375 120.917969 348.1875 121.894531 347.46875 122.613281 C 346.746094 123.335938 345.765625 123.738281 344.746094 123.738281 L 206.019531 123.738281 C 203.894531 123.738281 202.171875 122.019531 202.171875 119.898438 L 202.171875 105.632812 C 202.171875 103.507812 203.894531 101.789062 206.019531 101.789062 " fill-opacity="1" fill-rule="nonzero"/><g fill="#fefefe" fill-opacity="1"><g transform="translate(205.368801, 118.389797)"><g/></g></g><g fill="#fefefe" fill-opacity="1"><g transform="translate(209.447818, 118.389797)"><g/></g></g><g fill="#fefefe" fill-opacity="1"><g transform="translate(213.526835, 118.389797)"><g/></g></g><g fill="#fefefe" fill-opacity="1"><g transform="translate(217.605853, 118.389797)"><g/></g></g><g fill="#fefefe" fill-opacity="1"><g transform="translate(221.68487, 118.389797)"><g/></g></g><g fill="#fefefe" fill-opacity="1"><g transform="translate(225.759424, 118.389797)"><g><path d="M 4.796875 0.15625 C 4.191406 0.15625 3.632812 0.0390625 3.125 -0.1875 C 2.625 -0.414062 2.1875 -0.726562 1.8125 -1.125 C 1.4375 -1.53125 1.144531 -1.992188 0.9375 -2.515625 C 0.726562 -3.035156 0.625 -3.59375 0.625 -4.1875 C 0.625 -4.78125 0.726562 -5.332031 0.9375 -5.84375 C 1.144531 -6.363281 1.429688 -6.816406 1.796875 -7.203125 C 2.171875 -7.597656 2.613281 -7.910156 3.125 -8.140625 C 3.632812 -8.367188 4.1875 -8.484375 4.78125 -8.484375 C 5.394531 -8.484375 5.953125 -8.367188 6.453125 -8.140625 C 6.960938 -7.910156 7.394531 -7.597656 7.75 -7.203125 C 8.113281 -6.804688 8.394531 -6.351562 8.59375 -5.84375 C 8.800781 -5.332031 8.90625 -4.785156 8.90625 -4.203125 C 8.90625 -4.117188 8.90625 -4.035156 8.90625 -3.953125 C 8.90625 -3.867188 8.898438 -3.8125 8.890625 -3.78125 L 1.765625 -3.78125 C 1.796875 -3.332031 1.898438 -2.914062 2.078125 -2.53125 C 2.253906 -2.15625 2.476562 -1.828125 2.75 -1.546875 C 3.03125 -1.273438 3.347656 -1.0625 3.703125 -0.90625 C 4.054688 -0.75 4.4375 -0.671875 4.84375 -0.671875 C 5.113281 -0.671875 5.378906 -0.707031 5.640625 -0.78125 C 5.910156 -0.851562 6.15625 -0.953125 6.375 -1.078125 C 6.601562 -1.210938 6.804688 -1.375 6.984375 -1.5625 C 7.171875 -1.75 7.3125 -1.953125 7.40625 -2.171875 L 8.359375 -1.921875 C 8.222656 -1.609375 8.035156 -1.328125 7.796875 -1.078125 C 7.566406 -0.828125 7.296875 -0.609375 6.984375 -0.421875 C 6.679688 -0.234375 6.34375 -0.09375 5.96875 0 C 5.59375 0.101562 5.203125 0.15625 4.796875 0.15625 Z M 7.875 -4.609375 C 7.84375 -5.054688 7.738281 -5.460938 7.5625 -5.828125 C 7.382812 -6.203125 7.160156 -6.519531 6.890625 -6.78125 C 6.617188 -7.050781 6.300781 -7.257812 5.9375 -7.40625 C 5.582031 -7.550781 5.203125 -7.625 4.796875 -7.625 C 4.390625 -7.625 4.003906 -7.550781 3.640625 -7.40625 C 3.285156 -7.257812 2.96875 -7.050781 2.6875 -6.78125 C 2.414062 -6.519531 2.195312 -6.203125 2.03125 -5.828125 C 1.875 -5.453125 1.78125 -5.046875 1.75 -4.609375 Z M 7.875 -4.609375 "/></g></g></g><g fill="#fefefe" fill-opacity="1"><g transform="translate(235.149163, 118.389797)"><g><path d="M 3.96875 0.15625 C 3.3125 0.15625 2.675781 0.0507812 2.0625 -0.15625 C 1.445312 -0.375 0.914062 -0.6875 0.46875 -1.09375 L 0.953125 -1.828125 C 1.421875 -1.441406 1.898438 -1.148438 2.390625 -0.953125 C 2.878906 -0.765625 3.398438 -0.671875 3.953125 -0.671875 C 4.617188 -0.671875 5.148438 -0.804688 5.546875 -1.078125 C 5.953125 -1.347656 6.15625 -1.734375 6.15625 -2.234375 C 6.15625 -2.472656 6.101562 -2.671875 6 -2.828125 C 5.894531 -2.984375 5.738281 -3.117188 5.53125 -3.234375 C 5.320312 -3.347656 5.054688 -3.453125 4.734375 -3.546875 C 4.421875 -3.640625 4.054688 -3.734375 3.640625 -3.828125 C 3.160156 -3.941406 2.742188 -4.054688 2.390625 -4.171875 C 2.046875 -4.296875 1.757812 -4.429688 1.53125 -4.578125 C 1.300781 -4.722656 1.128906 -4.90625 1.015625 -5.125 C 0.898438 -5.34375 0.84375 -5.617188 0.84375 -5.953125 C 0.84375 -6.367188 0.925781 -6.734375 1.09375 -7.046875 C 1.257812 -7.367188 1.484375 -7.632812 1.765625 -7.84375 C 2.046875 -8.050781 2.375 -8.207031 2.75 -8.3125 C 3.132812 -8.425781 3.539062 -8.484375 3.96875 -8.484375 C 4.601562 -8.484375 5.179688 -8.378906 5.703125 -8.171875 C 6.234375 -7.960938 6.65625 -7.6875 6.96875 -7.34375 L 6.453125 -6.703125 C 6.140625 -7.023438 5.757812 -7.265625 5.3125 -7.421875 C 4.875 -7.578125 4.414062 -7.65625 3.9375 -7.65625 C 3.644531 -7.65625 3.375 -7.625 3.125 -7.5625 C 2.882812 -7.507812 2.671875 -7.421875 2.484375 -7.296875 C 2.296875 -7.171875 2.148438 -7.007812 2.046875 -6.8125 C 1.941406 -6.613281 1.890625 -6.378906 1.890625 -6.109375 C 1.890625 -5.890625 1.925781 -5.707031 2 -5.5625 C 2.070312 -5.425781 2.191406 -5.304688 2.359375 -5.203125 C 2.535156 -5.109375 2.753906 -5.019531 3.015625 -4.9375 C 3.273438 -4.851562 3.59375 -4.769531 3.96875 -4.6875 C 4.5 -4.5625 4.96875 -4.429688 5.375 -4.296875 C 5.78125 -4.171875 6.117188 -4.019531 6.390625 -3.84375 C 6.660156 -3.675781 6.863281 -3.46875 7 -3.21875 C 7.144531 -2.976562 7.21875 -2.6875 7.21875 -2.34375 C 7.21875 -1.570312 6.921875 -0.960938 6.328125 -0.515625 C 5.742188 -0.0664062 4.957031 0.15625 3.96875 0.15625 Z M 3.96875 0.15625 "/></g></g></g><g fill="#fefefe" fill-opacity="1"><g transform="translate(242.939293, 118.389797)"><g><path d="M 5.203125 -0.40625 C 5.140625 -0.375 5.046875 -0.328125 4.921875 -0.265625 C 4.796875 -0.210938 4.648438 -0.160156 4.484375 -0.109375 C 4.328125 -0.0546875 4.144531 -0.0078125 3.9375 0.03125 C 3.738281 0.0703125 3.53125 0.09375 3.3125 0.09375 C 3.070312 0.09375 2.84375 0.0625 2.625 0 C 2.414062 -0.0625 2.234375 -0.160156 2.078125 -0.296875 C 1.921875 -0.429688 1.789062 -0.597656 1.6875 -0.796875 C 1.59375 -1.003906 1.546875 -1.238281 1.546875 -1.5 L 1.546875 -7.46875 L 0.40625 -7.46875 L 0.40625 -8.34375 L 1.546875 -8.34375 L 1.546875 -11.15625 L 2.640625 -11.15625 L 2.640625 -8.34375 L 4.5625 -8.34375 L 4.5625 -7.46875 L 2.640625 -7.46875 L 2.640625 -1.8125 C 2.660156 -1.5 2.769531 -1.269531 2.96875 -1.125 C 3.164062 -0.976562 3.390625 -0.90625 3.640625 -0.90625 C 3.953125 -0.90625 4.222656 -0.957031 4.453125 -1.0625 C 4.691406 -1.164062 4.84375 -1.238281 4.90625 -1.28125 Z M 5.203125 -0.40625 "/></g></g></g><g fill="#fefefe" fill-opacity="1"><g transform="translate(248.298, 118.389797)"><g><path d="M 3.296875 0.15625 C 2.898438 0.15625 2.535156 0.09375 2.203125 -0.03125 C 1.867188 -0.164062 1.570312 -0.347656 1.3125 -0.578125 C 1.0625 -0.816406 0.867188 -1.09375 0.734375 -1.40625 C 0.597656 -1.726562 0.53125 -2.070312 0.53125 -2.4375 C 0.53125 -2.789062 0.613281 -3.125 0.78125 -3.4375 C 0.957031 -3.75 1.195312 -4.015625 1.5 -4.234375 C 1.8125 -4.460938 2.179688 -4.632812 2.609375 -4.75 C 3.035156 -4.875 3.503906 -4.9375 4.015625 -4.9375 C 4.441406 -4.9375 4.875 -4.898438 5.3125 -4.828125 C 5.75 -4.753906 6.140625 -4.648438 6.484375 -4.515625 L 6.484375 -5.265625 C 6.484375 -6.003906 6.273438 -6.585938 5.859375 -7.015625 C 5.441406 -7.441406 4.863281 -7.65625 4.125 -7.65625 C 3.695312 -7.65625 3.257812 -7.570312 2.8125 -7.40625 C 2.363281 -7.238281 1.910156 -6.992188 1.453125 -6.671875 L 1.078125 -7.390625 C 2.148438 -8.117188 3.191406 -8.484375 4.203125 -8.484375 C 5.253906 -8.484375 6.078125 -8.1875 6.671875 -7.59375 C 7.265625 -7.007812 7.5625 -6.203125 7.5625 -5.171875 L 7.5625 -1.40625 C 7.5625 -1.101562 7.695312 -0.953125 7.96875 -0.953125 L 7.96875 0 C 7.789062 0.03125 7.648438 0.046875 7.546875 0.046875 C 7.273438 0.046875 7.0625 -0.0195312 6.90625 -0.15625 C 6.75 -0.300781 6.664062 -0.492188 6.65625 -0.734375 L 6.625 -1.390625 C 6.238281 -0.890625 5.753906 -0.503906 5.171875 -0.234375 C 4.585938 0.0234375 3.960938 0.15625 3.296875 0.15625 Z M 3.546875 -0.671875 C 4.117188 -0.671875 4.640625 -0.773438 5.109375 -0.984375 C 5.585938 -1.203125 5.945312 -1.488281 6.1875 -1.84375 C 6.289062 -1.9375 6.363281 -2.035156 6.40625 -2.140625 C 6.457031 -2.253906 6.484375 -2.363281 6.484375 -2.46875 L 6.484375 -3.828125 C 6.117188 -3.960938 5.738281 -4.066406 5.34375 -4.140625 C 4.957031 -4.210938 4.5625 -4.25 4.15625 -4.25 C 3.394531 -4.25 2.769531 -4.085938 2.28125 -3.765625 C 1.800781 -3.453125 1.5625 -3.035156 1.5625 -2.515625 C 1.5625 -2.253906 1.613281 -2.007812 1.71875 -1.78125 C 1.820312 -1.5625 1.960938 -1.367188 2.140625 -1.203125 C 2.316406 -1.035156 2.523438 -0.90625 2.765625 -0.8125 C 3.015625 -0.71875 3.273438 -0.671875 3.546875 -0.671875 Z M 3.546875 -0.671875 "/></g></g></g><g fill="#fefefe" fill-opacity="1"><g transform="translate(257.015903, 118.389797)"><g><path d="M 13.59375 0 L 12.515625 0 L 12.515625 -4.65625 C 12.515625 -5.625 12.359375 -6.335938 12.046875 -6.796875 C 11.734375 -7.253906 11.273438 -7.484375 10.671875 -7.484375 C 10.347656 -7.484375 10.046875 -7.425781 9.765625 -7.3125 C 9.484375 -7.195312 9.222656 -7.03125 8.984375 -6.8125 C 8.742188 -6.601562 8.53125 -6.347656 8.34375 -6.046875 C 8.164062 -5.753906 8.03125 -5.4375 7.9375 -5.09375 L 7.9375 0 L 6.84375 0 L 6.84375 -4.65625 C 6.84375 -5.644531 6.691406 -6.363281 6.390625 -6.8125 C 6.097656 -7.257812 5.644531 -7.484375 5.03125 -7.484375 C 4.394531 -7.484375 3.832031 -7.265625 3.34375 -6.828125 C 2.851562 -6.390625 2.5 -5.816406 2.28125 -5.109375 L 2.28125 0 L 1.203125 0 L 1.203125 -8.34375 L 2.1875 -8.34375 L 2.1875 -6.453125 C 2.53125 -7.085938 2.976562 -7.582031 3.53125 -7.9375 C 4.09375 -8.300781 4.707031 -8.484375 5.375 -8.484375 C 6.082031 -8.484375 6.644531 -8.285156 7.0625 -7.890625 C 7.488281 -7.492188 7.75 -6.976562 7.84375 -6.34375 C 8.625 -7.769531 9.695312 -8.484375 11.0625 -8.484375 C 11.53125 -8.484375 11.925781 -8.394531 12.25 -8.21875 C 12.570312 -8.050781 12.832031 -7.8125 13.03125 -7.5 C 13.226562 -7.1875 13.367188 -6.804688 13.453125 -6.359375 C 13.546875 -5.921875 13.59375 -5.425781 13.59375 -4.875 Z M 13.59375 0 "/></g></g></g><g fill="#fefefe" fill-opacity="1"><g transform="translate(271.716375, 118.389797)"><g><path d="M 4.75 0.15625 C 4.144531 0.15625 3.59375 0.0390625 3.09375 -0.1875 C 2.59375 -0.414062 2.15625 -0.726562 1.78125 -1.125 C 1.414062 -1.519531 1.128906 -1.976562 0.921875 -2.5 C 0.722656 -3.019531 0.625 -3.566406 0.625 -4.140625 C 0.625 -4.734375 0.726562 -5.289062 0.9375 -5.8125 C 1.144531 -6.332031 1.429688 -6.789062 1.796875 -7.1875 C 2.171875 -7.582031 2.609375 -7.894531 3.109375 -8.125 C 3.609375 -8.363281 4.15625 -8.484375 4.75 -8.484375 C 5.34375 -8.484375 5.894531 -8.363281 6.40625 -8.125 C 6.914062 -7.894531 7.351562 -7.582031 7.71875 -7.1875 C 8.082031 -6.789062 8.367188 -6.332031 8.578125 -5.8125 C 8.785156 -5.289062 8.890625 -4.734375 8.890625 -4.140625 C 8.890625 -3.566406 8.785156 -3.019531 8.578125 -2.5 C 8.378906 -1.976562 8.097656 -1.519531 7.734375 -1.125 C 7.367188 -0.726562 6.929688 -0.414062 6.421875 -0.1875 C 5.910156 0.0390625 5.351562 0.15625 4.75 0.15625 Z M 1.734375 -4.125 C 1.734375 -3.65625 1.8125 -3.21875 1.96875 -2.8125 C 2.125 -2.414062 2.335938 -2.066406 2.609375 -1.765625 C 2.890625 -1.460938 3.210938 -1.222656 3.578125 -1.046875 C 3.941406 -0.878906 4.332031 -0.796875 4.75 -0.796875 C 5.164062 -0.796875 5.554688 -0.882812 5.921875 -1.0625 C 6.296875 -1.238281 6.617188 -1.476562 6.890625 -1.78125 C 7.171875 -2.082031 7.390625 -2.4375 7.546875 -2.84375 C 7.710938 -3.25 7.796875 -3.6875 7.796875 -4.15625 C 7.796875 -4.613281 7.710938 -5.046875 7.546875 -5.453125 C 7.390625 -5.867188 7.171875 -6.226562 6.890625 -6.53125 C 6.617188 -6.832031 6.296875 -7.070312 5.921875 -7.25 C 5.554688 -7.425781 5.164062 -7.515625 4.75 -7.515625 C 4.332031 -7.515625 3.941406 -7.425781 3.578125 -7.25 C 3.222656 -7.070312 2.90625 -6.828125 2.625 -6.515625 C 2.34375 -6.210938 2.125 -5.851562 1.96875 -5.4375 C 1.8125 -5.03125 1.734375 -4.59375 1.734375 -4.125 Z M 1.734375 -4.125 "/></g></g></g><g fill="#fefefe" fill-opacity="1"><g transform="translate(281.234094, 118.389797)"><g><path d="M 3.96875 0.15625 C 3.3125 0.15625 2.675781 0.0507812 2.0625 -0.15625 C 1.445312 -0.375 0.914062 -0.6875 0.46875 -1.09375 L 0.953125 -1.828125 C 1.421875 -1.441406 1.898438 -1.148438 2.390625 -0.953125 C 2.878906 -0.765625 3.398438 -0.671875 3.953125 -0.671875 C 4.617188 -0.671875 5.148438 -0.804688 5.546875 -1.078125 C 5.953125 -1.347656 6.15625 -1.734375 6.15625 -2.234375 C 6.15625 -2.472656 6.101562 -2.671875 6 -2.828125 C 5.894531 -2.984375 5.738281 -3.117188 5.53125 -3.234375 C 5.320312 -3.347656 5.054688 -3.453125 4.734375 -3.546875 C 4.421875 -3.640625 4.054688 -3.734375 3.640625 -3.828125 C 3.160156 -3.941406 2.742188 -4.054688 2.390625 -4.171875 C 2.046875 -4.296875 1.757812 -4.429688 1.53125 -4.578125 C 1.300781 -4.722656 1.128906 -4.90625 1.015625 -5.125 C 0.898438 -5.34375 0.84375 -5.617188 0.84375 -5.953125 C 0.84375 -6.367188 0.925781 -6.734375 1.09375 -7.046875 C 1.257812 -7.367188 1.484375 -7.632812 1.765625 -7.84375 C 2.046875 -8.050781 2.375 -8.207031 2.75 -8.3125 C 3.132812 -8.425781 3.539062 -8.484375 3.96875 -8.484375 C 4.601562 -8.484375 5.179688 -8.378906 5.703125 -8.171875 C 6.234375 -7.960938 6.65625 -7.6875 6.96875 -7.34375 L 6.453125 -6.703125 C 6.140625 -7.023438 5.757812 -7.265625 5.3125 -7.421875 C 4.875 -7.578125 4.414062 -7.65625 3.9375 -7.65625 C 3.644531 -7.65625 3.375 -7.625 3.125 -7.5625 C 2.882812 -7.507812 2.671875 -7.421875 2.484375 -7.296875 C 2.296875 -7.171875 2.148438 -7.007812 2.046875 -6.8125 C 1.941406 -6.613281 1.890625 -6.378906 1.890625 -6.109375 C 1.890625 -5.890625 1.925781 -5.707031 2 -5.5625 C 2.070312 -5.425781 2.191406 -5.304688 2.359375 -5.203125 C 2.535156 -5.109375 2.753906 -5.019531 3.015625 -4.9375 C 3.273438 -4.851562 3.59375 -4.769531 3.96875 -4.6875 C 4.5 -4.5625 4.96875 -4.429688 5.375 -4.296875 C 5.78125 -4.171875 6.117188 -4.019531 6.390625 -3.84375 C 6.660156 -3.675781 6.863281 -3.46875 7 -3.21875 C 7.144531 -2.976562 7.21875 -2.6875 7.21875 -2.34375 C 7.21875 -1.570312 6.921875 -0.960938 6.328125 -0.515625 C 5.742188 -0.0664062 4.957031 0.15625 3.96875 0.15625 Z M 3.96875 0.15625 "/></g></g></g><g fill="#fefefe" fill-opacity="1"><g transform="translate(289.024224, 118.389797)"><g/></g></g><g fill="#fefefe" fill-opacity="1"><g transform="translate(293.103241, 118.389797)"><g><path d="M 3.296875 0.15625 C 2.898438 0.15625 2.535156 0.09375 2.203125 -0.03125 C 1.867188 -0.164062 1.570312 -0.347656 1.3125 -0.578125 C 1.0625 -0.816406 0.867188 -1.09375 0.734375 -1.40625 C 0.597656 -1.726562 0.53125 -2.070312 0.53125 -2.4375 C 0.53125 -2.789062 0.613281 -3.125 0.78125 -3.4375 C 0.957031 -3.75 1.195312 -4.015625 1.5 -4.234375 C 1.8125 -4.460938 2.179688 -4.632812 2.609375 -4.75 C 3.035156 -4.875 3.503906 -4.9375 4.015625 -4.9375 C 4.441406 -4.9375 4.875 -4.898438 5.3125 -4.828125 C 5.75 -4.753906 6.140625 -4.648438 6.484375 -4.515625 L 6.484375 -5.265625 C 6.484375 -6.003906 6.273438 -6.585938 5.859375 -7.015625 C 5.441406 -7.441406 4.863281 -7.65625 4.125 -7.65625 C 3.695312 -7.65625 3.257812 -7.570312 2.8125 -7.40625 C 2.363281 -7.238281 1.910156 -6.992188 1.453125 -6.671875 L 1.078125 -7.390625 C 2.148438 -8.117188 3.191406 -8.484375 4.203125 -8.484375 C 5.253906 -8.484375 6.078125 -8.1875 6.671875 -7.59375 C 7.265625 -7.007812 7.5625 -6.203125 7.5625 -5.171875 L 7.5625 -1.40625 C 7.5625 -1.101562 7.695312 -0.953125 7.96875 -0.953125 L 7.96875 0 C 7.789062 0.03125 7.648438 0.046875 7.546875 0.046875 C 7.273438 0.046875 7.0625 -0.0195312 6.90625 -0.15625 C 6.75 -0.300781 6.664062 -0.492188 6.65625 -0.734375 L 6.625 -1.390625 C 6.238281 -0.890625 5.753906 -0.503906 5.171875 -0.234375 C 4.585938 0.0234375 3.960938 0.15625 3.296875 0.15625 Z M 3.546875 -0.671875 C 4.117188 -0.671875 4.640625 -0.773438 5.109375 -0.984375 C 5.585938 -1.203125 5.945312 -1.488281 6.1875 -1.84375 C 6.289062 -1.9375 6.363281 -2.035156 6.40625 -2.140625 C 6.457031 -2.253906 6.484375 -2.363281 6.484375 -2.46875 L 6.484375 -3.828125 C 6.117188 -3.960938 5.738281 -4.066406 5.34375 -4.140625 C 4.957031 -4.210938 4.5625 -4.25 4.15625 -4.25 C 3.394531 -4.25 2.769531 -4.085938 2.28125 -3.765625 C 1.800781 -3.453125 1.5625 -3.035156 1.5625 -2.515625 C 1.5625 -2.253906 1.613281 -2.007812 1.71875 -1.78125 C 1.820312 -1.5625 1.960938 -1.367188 2.140625 -1.203125 C 2.316406 -1.035156 2.523438 -0.90625 2.765625 -0.8125 C 3.015625 -0.71875 3.273438 -0.671875 3.546875 -0.671875 Z M 3.546875 -0.671875 "/></g></g></g><g fill="#fefefe" fill-opacity="1"><g transform="translate(301.821144, 118.389797)"><g><path d="M 4.421875 0.15625 C 3.847656 0.15625 3.328125 0.0351562 2.859375 -0.203125 C 2.398438 -0.441406 2.003906 -0.757812 1.671875 -1.15625 C 1.347656 -1.5625 1.09375 -2.019531 0.90625 -2.53125 C 0.726562 -3.050781 0.640625 -3.59375 0.640625 -4.15625 C 0.640625 -4.738281 0.738281 -5.289062 0.9375 -5.8125 C 1.144531 -6.332031 1.425781 -6.789062 1.78125 -7.1875 C 2.132812 -7.582031 2.554688 -7.894531 3.046875 -8.125 C 3.535156 -8.363281 4.054688 -8.484375 4.609375 -8.484375 C 4.929688 -8.484375 5.242188 -8.4375 5.546875 -8.34375 C 5.847656 -8.25 6.128906 -8.125 6.390625 -7.96875 C 6.660156 -7.820312 6.90625 -7.640625 7.125 -7.421875 C 7.34375 -7.203125 7.535156 -6.960938 7.703125 -6.703125 L 7.703125 -8.34375 L 8.671875 -8.34375 L 8.671875 1.953125 C 8.671875 2.253906 8.804688 2.410156 9.078125 2.421875 L 9.078125 3.359375 C 8.960938 3.378906 8.851562 3.390625 8.75 3.390625 C 8.65625 3.390625 8.5625 3.390625 8.46875 3.390625 C 8.21875 3.367188 8.003906 3.265625 7.828125 3.078125 C 7.660156 2.890625 7.578125 2.671875 7.578125 2.421875 L 7.578125 -1.734375 C 7.171875 -1.109375 6.703125 -0.632812 6.171875 -0.3125 C 5.640625 0 5.054688 0.15625 4.421875 0.15625 Z M 4.75 -0.796875 C 5.070312 -0.796875 5.375 -0.847656 5.65625 -0.953125 C 5.9375 -1.066406 6.195312 -1.207031 6.4375 -1.375 C 6.675781 -1.550781 6.890625 -1.757812 7.078125 -2 C 7.273438 -2.25 7.441406 -2.503906 7.578125 -2.765625 L 7.578125 -5.34375 C 7.535156 -5.632812 7.421875 -5.910156 7.234375 -6.171875 C 7.054688 -6.429688 6.835938 -6.660156 6.578125 -6.859375 C 6.316406 -7.066406 6.03125 -7.226562 5.71875 -7.34375 C 5.414062 -7.457031 5.113281 -7.515625 4.8125 -7.515625 C 4.363281 -7.515625 3.953125 -7.414062 3.578125 -7.21875 C 3.203125 -7.03125 2.875 -6.78125 2.59375 -6.46875 C 2.320312 -6.15625 2.113281 -5.796875 1.96875 -5.390625 C 1.820312 -4.984375 1.75 -4.566406 1.75 -4.140625 C 1.75 -3.691406 1.820312 -3.265625 1.96875 -2.859375 C 2.113281 -2.453125 2.316406 -2.097656 2.578125 -1.796875 C 2.847656 -1.492188 3.164062 -1.25 3.53125 -1.0625 C 3.90625 -0.882812 4.3125 -0.796875 4.75 -0.796875 Z M 4.75 -0.796875 "/></g></g></g><g fill="#fefefe" fill-opacity="1"><g transform="translate(311.690768, 118.389797)"><g><path d="M 3.8125 0.15625 C 2.90625 0.15625 2.226562 -0.140625 1.78125 -0.734375 C 1.34375 -1.335938 1.125 -2.238281 1.125 -3.4375 L 1.125 -8.34375 L 2.203125 -8.34375 L 2.203125 -3.625 C 2.203125 -1.738281 2.847656 -0.796875 4.140625 -0.796875 C 4.460938 -0.796875 4.773438 -0.847656 5.078125 -0.953125 C 5.390625 -1.066406 5.675781 -1.222656 5.9375 -1.421875 C 6.207031 -1.628906 6.441406 -1.867188 6.640625 -2.140625 C 6.847656 -2.421875 7.019531 -2.738281 7.15625 -3.09375 L 7.15625 -8.34375 L 8.234375 -8.34375 L 8.234375 -1.40625 C 8.234375 -1.101562 8.363281 -0.953125 8.625 -0.953125 L 8.625 0 C 8.5 0.0195312 8.394531 0.03125 8.3125 0.03125 C 8.226562 0.03125 8.171875 0.03125 8.140625 0.03125 C 7.890625 0.0195312 7.679688 -0.0664062 7.515625 -0.234375 C 7.359375 -0.410156 7.28125 -0.640625 7.28125 -0.921875 L 7.28125 -1.890625 C 6.914062 -1.234375 6.421875 -0.726562 5.796875 -0.375 C 5.171875 -0.0195312 4.507812 0.15625 3.8125 0.15625 Z M 3.8125 0.15625 "/></g></g></g><g fill="#fefefe" fill-opacity="1"><g transform="translate(321.192488, 118.389797)"><g><path d="M 1.84375 -9.921875 L 1.125 -10.1875 L 2.0625 -11.6875 L 3.21875 -11.6875 Z M 1.203125 0 L 1.203125 -8.34375 L 2.28125 -8.34375 L 2.28125 0 Z M 1.203125 0 "/></g></g></g><g fill="#fefefe" fill-opacity="1"><g transform="translate(324.677385, 118.389797)"><g/></g></g><g fill="#fefefe" fill-opacity="1"><g transform="translate(328.756402, 118.389797)"><g/></g></g><g fill="#fefefe" fill-opacity="1"><g transform="translate(332.835419, 118.389797)"><g/></g></g><g fill="#fefefe" fill-opacity="1"><g transform="translate(336.914437, 118.389797)"><g/></g></g><g fill="#fefefe" fill-opacity="1"><g transform="translate(340.993454, 118.389797)"><g/></g></g><g clip-path="url(#8695f4a6fa)"><path fill="#2aa81a" d="M 145.339844 109.703125 C 145.339844 117.203125 148.320312 124.003906 153.15625 128.996094 L 151.671875 134.535156 L 157.847656 132.882812 C 162.21875 135.757812 167.449219 137.433594 173.074219 137.433594 C 188.390625 137.433594 200.808594 125.019531 200.808594 109.703125 C 200.808594 94.382812 188.390625 81.96875 173.074219 81.96875 C 157.757812 81.96875 145.339844 94.382812 145.339844 109.703125 Z M 145.339844 109.703125 " fill-opacity="1" fill-rule="evenodd"/></g><path fill="#fefefe" d="M 165.851562 126.820312 L 154.617188 131.625 L 157.605469 120.253906 C 155.34375 117.066406 154.125 113.261719 154.125 109.316406 C 154.125 98.871094 162.59375 90.398438 173.042969 90.398438 C 183.488281 90.398438 191.960938 98.871094 191.960938 109.316406 C 191.960938 119.765625 183.488281 128.234375 173.042969 128.234375 C 170.566406 128.234375 168.128906 127.753906 165.851562 126.820312 Z M 156.097656 129.917969 L 165.976562 125.691406 L 166.277344 125.8125 C 168.425781 126.695312 170.722656 127.144531 173.042969 127.144531 C 182.871094 127.144531 190.84375 119.171875 190.84375 109.34375 C 190.84375 99.511719 182.871094 91.542969 173.042969 91.542969 C 163.210938 91.542969 155.242188 99.511719 155.242188 109.34375 C 155.242188 113.039062 156.375 116.621094 158.515625 119.632812 L 158.722656 119.925781 Z M 173.042969 93.753906 C 181.636719 93.753906 188.601562 100.722656 188.601562 109.316406 C 188.601562 117.910156 181.636719 124.875 173.042969 124.875 C 170.46875 124.875 168.042969 124.25 165.902344 123.144531 L 159.609375 125.839844 L 161.273438 119.496094 C 158.910156 116.765625 157.480469 113.207031 157.480469 109.316406 C 157.480469 100.722656 164.449219 93.753906 173.042969 93.753906 Z M 163.9375 104.074219 C 163.9375 105.46875 164.136719 106.15625 164.644531 107.421875 C 164.804688 107.820312 165.039062 108.21875 165.242188 108.601562 C 165.464844 109.011719 165.683594 109.355469 165.929688 109.726562 L 167.898438 112.242188 C 168.21875 112.625 169.324219 113.757812 169.65625 114.074219 L 170.828125 115.140625 C 171.183594 115.503906 172.136719 116.203125 172.570312 116.527344 C 173.269531 117.050781 174.011719 117.5 174.796875 117.890625 C 175.015625 118.003906 175.191406 118.101562 175.417969 118.195312 C 176.667969 118.695312 177.375 118.898438 178.765625 118.898438 C 179.640625 118.898438 180.542969 118.660156 181.015625 117.949219 C 181.230469 117.625 181.414062 117.285156 181.617188 116.949219 C 181.722656 116.777344 181.804688 116.636719 181.910156 116.460938 C 182.035156 116.257812 182.125 116.058594 182.144531 115.871094 L 182.144531 115.710938 C 182.125 115.519531 182.019531 115.335938 181.796875 115.160156 L 178.277344 112.8125 C 177.875 112.546875 177.539062 112.339844 177.066406 112.648438 C 176.792969 112.828125 175.886719 114.21875 175.613281 114.394531 C 175.097656 114.722656 174.601562 114.339844 174.035156 114 C 173.664062 113.777344 173.332031 113.546875 173.003906 113.285156 C 172.484375 112.871094 172.121094 112.558594 171.648438 112.082031 L 171.1875 111.65625 C 171.113281 111.578125 171.042969 111.519531 170.972656 111.441406 C 170.148438 110.5 169.566406 110.007812 168.855469 108.832031 C 167.90625 107.253906 168.175781 107.402344 169.902344 106.046875 C 170.007812 105.964844 170.109375 105.902344 170.179688 105.792969 C 170.5 105.332031 170.3125 104.984375 170.042969 104.582031 L 168.082031 101.640625 C 167.949219 101.441406 167.835938 101.25 167.699219 101.0625 C 167.515625 100.820312 167.328125 100.714844 167.128906 100.691406 L 166.972656 100.691406 C 166.613281 100.730469 166.242188 101.007812 165.890625 101.21875 C 165.152344 101.667969 164.523438 101.902344 164.179688 102.710938 C 164.054688 103.007812 163.941406 103.652344 163.941406 104.070312 Z M 163.9375 104.074219 " fill-opacity="1" fill-rule="evenodd"/></svg>